<svg width="61" height="61" viewBox="0 0 61 61" fill="none" xmlns="http://www.w3.org/2000/svg">
<g clip-path="url(#clip0_1101_826)">
<path d="M48.5874 18.7611C48.4377 18.6095 48.2696 18.4708 48.0849 18.3477L47.8957 18.3082C47.7965 18.2651 47.7175 18.1943 47.666 18.1088C47.3702 17.9692 47.0606 17.8792 46.7456 17.8342C46.4736 17.7965 46.2826 17.5439 46.3221 17.2701C46.3587 16.9963 46.6132 16.8053 46.8852 16.8429C47.1966 16.8889 47.5088 16.968 47.8084 17.0855C47.857 16.8668 47.8845 16.6436 47.8845 16.4186C47.8836 15.9262 47.7679 15.4292 47.5217 14.9616C47.2406 14.427 46.8282 14.0099 46.3459 13.7253C45.9233 13.4754 45.4456 13.3266 44.9551 13.2917C44.9193 13.739 44.8128 14.1845 44.6272 14.6163C44.5169 14.8697 44.2239 14.9864 43.9695 14.8771C43.7159 14.7687 43.5984 14.4748 43.7077 14.2212C43.8859 13.8052 43.9695 13.3771 43.9714 12.9527L43.965 12.7717C43.931 12.1838 43.7362 11.6161 43.4046 11.132C43.0729 10.6488 42.6082 10.2529 42.0295 10.0021C41.6143 9.82481 41.1843 9.74125 40.7608 9.74125C39.9496 9.74125 39.1643 10.0537 38.5709 10.6047C38.682 10.9823 38.7454 11.38 38.7454 11.7934C38.7454 12.0691 38.5195 12.2931 38.2439 12.2931C37.9682 12.2931 37.7432 12.0691 37.7432 11.7934C37.7432 11.3883 37.6688 11.0043 37.5329 10.647H37.5338C37.3032 10.0454 36.8954 9.52727 36.3727 9.16164C35.8518 8.79613 35.2208 8.58203 34.5337 8.58203C33.9376 8.58203 33.3818 8.74469 32.9041 9.0257C32.522 9.25164 32.1922 9.55668 31.9332 9.91492C32.4393 10.6084 32.7387 11.4655 32.7387 12.3897C32.7387 12.6652 32.5138 12.8884 32.2372 12.8884C31.9616 12.8884 31.7366 12.6652 31.7366 12.3897C31.7366 11.5777 31.438 10.8391 30.9411 10.2741C30.3514 9.60074 29.4907 9.17922 28.5261 9.17922C27.8565 9.17922 27.2401 9.38219 26.7247 9.73129C26.2112 10.0804 25.8024 10.5746 25.5608 11.1551C25.4047 11.5345 25.3155 11.9525 25.3155 12.3897C25.3155 12.6652 25.0923 12.8884 24.8158 12.8884C24.5393 12.8884 24.3161 12.6652 24.3161 12.3897C24.3161 11.9836 24.375 11.5923 24.4815 11.2193C24.1048 11.0669 23.697 10.9824 23.2782 10.9824C23.0403 10.9824 22.8015 11.0099 22.5589 11.0642C21.8461 11.2286 21.2499 11.6126 20.8135 12.1325C20.4993 12.5073 20.2752 12.9528 20.1586 13.4314C21.192 13.4496 22.2245 13.8493 23.0219 14.6301C23.2186 14.8239 23.2222 15.14 23.0293 15.3365C22.8355 15.5349 22.5194 15.5368 22.322 15.3447C21.6955 14.7339 20.888 14.4279 20.0759 14.427C19.9309 14.427 19.7857 14.4371 19.6405 14.4555H19.6387H19.6378C18.9571 14.55 18.3013 14.8605 17.7804 15.3916C17.1685 16.0162 16.8654 16.8228 16.8645 17.6366C16.8645 18.1006 16.9655 18.568 17.1676 18.998C17.3246 19.3369 17.5452 19.653 17.8299 19.9304V19.9312C18.1515 20.2472 18.5226 20.4805 18.9186 20.633C19.1748 20.7332 19.3044 21.0225 19.2034 21.2796C19.1033 21.5388 18.8148 21.6674 18.5567 21.5663C18.0396 21.366 17.5509 21.0593 17.1282 20.645C16.9436 20.4631 16.7791 20.2693 16.6332 20.0636C16.2556 20.6046 16.0508 21.2521 16.0508 21.9118C16.0508 22.4226 16.173 22.9379 16.4311 23.422C16.7213 23.9639 17.1412 24.3865 17.6354 24.6749C18.0257 24.9037 18.4621 25.0479 18.9123 25.0984L18.9113 25.0681C18.9113 24.8035 18.9362 24.5445 18.9812 24.2928C19.0326 24.0209 19.2944 23.8435 19.5645 23.8922C19.8364 23.9427 20.0156 24.2036 19.9668 24.4755C19.931 24.6674 19.9118 24.8668 19.9118 25.068L19.92 25.3005L19.9466 25.5347V25.5374L19.9475 25.542C20.1772 27.111 21.533 28.2839 23.1204 28.2839L23.351 28.2748H23.3519C24.0555 28.2243 24.6875 27.9523 25.1891 27.5289C25.5409 27.2322 25.8293 26.8602 26.0268 26.4412C26.1434 26.1904 26.4438 26.084 26.6928 26.2023C26.9427 26.32 27.0493 26.6175 26.9316 26.8675C26.7177 27.3186 26.4255 27.7254 26.0746 28.0717C26.2712 28.6762 26.6404 29.1952 27.1228 29.581C27.674 30.0229 28.3693 30.2837 29.1207 30.2837L29.3523 30.2746H29.3532C29.829 30.2406 30.269 30.1038 30.6595 29.8906C30.5988 29.6031 30.564 29.3092 30.564 29.0116C30.564 28.3979 30.7009 27.7723 30.9838 27.1844C31.1041 26.9355 31.4026 26.8316 31.6507 26.952C31.8996 27.0705 32.0053 27.37 31.8849 27.6189C31.6672 28.07 31.5652 28.544 31.5652 29.0116C31.5652 29.3385 31.6157 29.6646 31.7131 29.9741H31.7141C31.9704 30.7908 32.5491 31.5046 33.3822 31.905C33.8323 32.1228 34.3064 32.2247 34.773 32.2247C35.5143 32.2247 36.2391 31.9656 36.8142 31.4963L36.8161 31.4954C37.1652 31.2078 37.4573 30.844 37.6675 30.4095L37.6685 30.4076C37.8642 30.0017 37.9671 29.5764 37.9844 29.152C37.9973 28.8763 38.2297 28.6614 38.5071 28.6743C38.7827 28.6863 38.9957 28.9195 38.9838 29.1951C38.9599 29.7517 38.8249 30.3139 38.5686 30.8439V30.843C38.3628 31.272 38.0919 31.6496 37.7741 31.972C38.3638 32.8189 39.3448 33.3527 40.4059 33.3517C40.6024 33.3517 40.8027 33.3334 41.0039 33.2948C41.7764 33.1497 42.4277 32.7408 42.8907 32.1787C43.3528 31.6155 43.622 30.8999 43.622 30.1448L43.621 30.0769V30.0732C43.6174 29.9032 43.5999 29.7251 43.5669 29.5458C43.487 29.1205 43.3243 28.7346 43.1012 28.3939C42.7778 28.1091 42.4187 27.7371 42.0798 27.3237C41.7187 26.8829 41.3862 26.4005 41.163 25.9146C41.0161 25.5895 40.9113 25.2606 40.9094 24.9143C40.9094 24.7609 40.9305 24.602 40.9884 24.4496C41.0444 24.2943 41.1363 24.1473 41.2593 24.0261C41.4541 23.8322 41.77 23.8322 41.9657 24.0261C42.1605 24.2226 42.1605 24.5404 41.9657 24.7343L41.928 24.7941L41.9088 24.9145C41.9069 25.0403 41.9593 25.2535 42.0723 25.4986C42.1843 25.7431 42.3506 26.0177 42.5463 26.2886C42.9339 26.8315 43.4364 27.3644 43.8148 27.6895L43.8663 27.7336L43.904 27.7896C44.2136 28.2508 44.4405 28.7818 44.5497 29.3614V29.3623L44.5856 29.6103L44.7354 29.6167C45.3692 29.6158 46.0075 29.4284 46.5689 29.0343C47.0154 28.7201 47.3552 28.3169 47.5849 27.8639C47.8154 27.4102 47.9357 26.9086 47.9357 26.4034C47.9357 25.9303 47.8291 25.4554 47.6161 25.0136C47.4185 25.077 47.2182 25.1275 47.0152 25.1624C46.7434 25.2111 46.4852 25.0264 46.4366 24.7546C46.3905 24.4818 46.5744 24.2246 46.8462 24.1768C47.7317 24.0243 48.5429 23.5081 49.0445 22.6795C49.3623 22.1587 49.512 21.5854 49.512 21.0187C49.512 20.1836 49.1895 19.367 48.5888 18.7616L48.5874 18.7611ZM25.6712 14.9452C26.1488 14.3802 26.7827 13.9787 27.4643 13.716C28.1486 13.4533 28.8816 13.3274 29.5854 13.3274C30.2697 13.3284 30.9274 13.4441 31.4859 13.7032C31.7357 13.817 31.8451 14.1156 31.7293 14.3664C31.6145 14.6164 31.3177 14.7265 31.0652 14.6109C30.6794 14.4299 30.1511 14.3261 29.5854 14.3261C29.0029 14.3261 28.3821 14.4334 27.8244 14.6504C27.2668 14.8643 26.7772 15.184 26.4327 15.5901C26.2563 15.8014 25.9394 15.8289 25.7281 15.6489C25.5178 15.4707 25.4912 15.1555 25.6712 14.9452ZM37.0544 26.7712C36.4729 26.7712 35.9456 26.7051 35.4643 26.594C35.4772 26.7317 35.4863 26.8851 35.4863 27.0477C35.4863 27.3739 35.4505 27.7466 35.3485 28.138C35.2456 28.5284 35.0721 28.939 34.7983 29.3331C34.6413 29.5609 34.3298 29.617 34.1029 29.4598C33.8751 29.3027 33.82 28.9922 33.9752 28.7635C34.1772 28.4723 34.3031 28.1746 34.3803 27.8816C34.4575 27.5887 34.486 27.3038 34.486 27.0476C34.487 26.6939 34.4327 26.4027 34.3941 26.2364C34.1498 26.1262 33.9247 26.0022 33.7145 25.8634C32.8767 25.3214 32.3164 24.6059 31.9645 23.9252C31.7285 23.4686 31.585 23.0277 31.5079 22.6446C31.4639 22.426 31.4418 22.2277 31.4418 22.0475C31.4418 21.7701 31.666 21.5459 31.9425 21.5459C32.2189 21.5459 32.4431 21.7701 32.4431 22.0475C32.4422 22.1925 32.4734 22.4361 32.5524 22.7126C32.6314 22.99 32.7573 23.3051 32.9391 23.622C33.3038 24.2595 33.8834 24.8979 34.7782 25.3123C35.3762 25.5897 36.1202 25.7697 37.0544 25.7697C37.3309 25.7697 37.555 25.9939 37.555 26.2703C37.555 26.5471 37.331 26.7712 37.0544 26.7712ZM40.5764 23.1188C40.4735 23.3743 40.1823 23.4992 39.925 23.3971C39.6687 23.2942 39.5457 23.0049 39.6467 22.7486V22.7477L39.6495 22.7403L39.6643 22.6962L39.7157 22.5162C39.7535 22.3582 39.792 22.135 39.792 21.8897L39.7911 21.8548C39.104 22.0881 38.4665 22.1928 37.8795 22.1928C36.9922 22.1946 36.2243 21.9513 35.5995 21.582C34.974 21.2129 34.4872 20.7241 34.1233 20.2271C33.71 19.664 33.168 19.1588 32.547 18.8015C31.9243 18.4431 31.228 18.2301 30.4885 18.2282C29.8409 18.2301 29.152 18.3917 28.4327 18.7867C27.7502 19.1615 27.3111 19.6602 27.0273 20.2077C26.7453 20.7562 26.6259 21.355 26.6267 21.9007C26.6248 22.4059 26.7315 22.8633 26.8701 23.1518C26.9886 23.4017 26.8811 23.6993 26.6322 23.8178C26.3833 23.9364 26.0847 23.8288 25.9662 23.5799C25.7485 23.1187 25.6273 22.5381 25.6255 21.9007C25.6264 21.2669 25.7523 20.5742 26.0619 19.912C25.441 20.0526 24.8641 20.115 24.3386 20.115C24.0548 20.115 23.7874 20.0966 23.533 20.0636L23.4402 20.251L23.4392 20.2527L23.4318 20.2602L23.4052 20.2942L23.2986 20.4393C23.2077 20.5698 23.0818 20.7599 22.9449 21.0024C22.6721 21.4829 22.3598 22.1608 22.2082 22.9221C22.154 23.1932 21.8913 23.3705 21.6202 23.3153C21.3493 23.2612 21.1728 22.9984 21.2289 22.7256C21.4089 21.8226 21.7646 21.0546 22.0741 20.5081C22.2357 20.2252 22.3837 20.0011 22.492 19.8486C22.0842 19.7264 21.7314 19.5767 21.443 19.4241C20.7845 19.0741 20.4417 18.7232 20.4124 18.6947C20.2212 18.4954 20.2268 18.1793 20.4252 17.9874C20.6245 17.7964 20.9396 17.8019 21.1316 17.9984L21.1372 18.0039L21.1665 18.0324L21.3098 18.1526C21.4401 18.2555 21.6414 18.3971 21.9105 18.5403C22.4506 18.825 23.2572 19.1136 24.3384 19.1154C25.098 19.1154 25.9937 18.9704 27.0344 18.5698C27.2981 18.3245 27.6021 18.1005 27.9512 17.9093C28.8073 17.44 29.6698 17.2287 30.4883 17.2287C31.4234 17.2287 32.2933 17.5007 33.0466 17.9342C33.7999 18.3696 34.4383 18.9658 34.9297 19.6363C35.2283 20.0413 35.6205 20.4337 36.1065 20.7193C36.5952 21.0059 37.1729 21.1925 37.8793 21.1933C38.3634 21.1933 38.909 21.1033 39.5264 20.8865C39.3758 20.6448 39.1516 20.4115 38.7823 20.2002C38.5416 20.0634 38.4562 19.7584 38.5921 19.5187C38.729 19.277 39.0331 19.1943 39.2737 19.3285C39.8653 19.662 40.2612 20.1038 40.4908 20.5659C40.7232 21.0261 40.7921 21.4927 40.7921 21.8896C40.7894 22.5824 40.5901 23.083 40.5764 23.1188ZM40.389 16.9909C39.2205 16.9909 38.1982 16.6758 37.3714 16.1991C37.2548 16.3608 37.0986 16.5638 36.8974 16.7842C36.4446 17.2812 35.7794 17.8646 34.8894 18.1841C34.6276 18.276 34.3428 18.142 34.25 17.8811C34.1572 17.6201 34.2941 17.3345 34.5522 17.2427C35.2091 17.0084 35.7583 16.5482 36.1387 16.1321C36.3151 15.9419 36.452 15.7619 36.5512 15.6241C36.0579 15.2071 35.6684 14.7321 35.4011 14.2435C35.1477 13.775 35.0006 13.2918 34.9988 12.8223C34.9988 12.5468 35.223 12.3227 35.4995 12.3227C35.7751 12.3227 35.9991 12.5468 35.9991 12.8223C35.9973 13.075 36.0855 13.4121 36.2802 13.7658C36.4721 14.1203 36.7643 14.4896 37.1464 14.8204C37.9107 15.4827 39.0139 15.9897 40.3891 15.9897C40.6655 15.9897 40.8888 16.2148 40.8888 16.4912C40.8887 16.7668 40.6654 16.9909 40.389 16.9909ZM44.3315 24.0338C44.1561 24.2451 43.84 24.2763 43.627 24.0989C43.4139 23.9235 43.3845 23.6076 43.559 23.3954C44.1046 22.733 44.3059 22.0661 44.3076 21.4278C44.3095 20.8463 44.1313 20.285 43.852 19.812C43.5764 19.3397 43.1953 18.9613 42.8287 18.751C42.5825 18.6095 42.3511 18.5461 42.1673 18.5461C41.8907 18.5461 41.6676 18.323 41.6676 18.0464C41.6676 17.77 41.8909 17.5458 42.1673 17.5458C42.4713 17.5458 42.7689 17.6202 43.052 17.7452C43.3339 17.8683 43.6004 18.0437 43.8484 18.2579C44.3435 18.6858 44.7642 19.2682 45.0288 19.9509C45.2033 20.4064 45.3098 20.9062 45.3098 21.4279C45.3107 22.2857 45.0178 23.2042 44.3315 24.0338Z" fill="#F0F0F0"/>
<path d="M20.71 49.0908L20.7441 49.1212C20.7431 49.1202 20.7431 49.1202 20.7422 49.1193L20.71 49.0908Z" fill="#F0F0F0"/>
<path d="M50.7385 8.62781C47.0171 4.27641 41.4202 1.31309 34.2487 0.880313C33.6653 0.844453 33.0848 0.826172 32.5097 0.826172C26.4782 0.826172 20.9298 2.78461 16.8624 6.38004C12.7921 9.96621 10.2577 15.2169 10.2668 21.5057C10.2668 21.648 10.2678 21.7904 10.2705 21.9338L10.2641 22.6924L5.08691 31.8352C4.80859 32.3284 4.66797 32.8787 4.66797 33.429C4.66797 33.8882 4.76547 34.3494 4.96281 34.7793C5.38082 35.6914 6.20289 36.3473 7.1766 36.5733L7.17473 36.5815L9.55574 37.2374L10.4964 46.3104L10.5038 46.3095C10.57 47.6313 11.1597 48.8723 12.1611 49.7432C13.0512 50.5185 14.1875 50.9392 15.3559 50.9392C15.4743 50.9392 15.591 50.9282 15.7087 50.92L18.4066 51.1339L18.5417 51.1193L18.5848 51.1174C18.6885 51.1174 18.7851 51.1542 18.8595 51.2212L18.8639 51.2259C18.9495 51.303 19 51.416 19 51.5318V60.8262H44.1906V59.4152C44.1906 59.4152 44.1906 55.593 44.1906 54.0682C44.1878 53.4545 44.31 52.2411 44.5507 51.0708C44.6702 50.4839 44.8179 49.8987 44.9853 49.3927C45.1506 48.8875 45.3418 48.4575 45.5015 48.2067C47.177 45.506 49.5461 43.2905 51.7157 40.1571C53.8827 37.0266 55.73 32.9654 56.2361 26.8035C56.3004 26.031 56.3327 25.2584 56.3327 24.4896C56.3327 18.6479 54.4661 12.9755 50.7385 8.62781ZM53.4235 26.568C52.9339 32.2956 51.3318 35.7227 49.3916 38.5567C47.4544 41.3878 45.0588 43.6136 43.1085 46.7102C42.7687 47.2577 42.5196 47.8641 42.3057 48.5088C41.9879 49.4743 41.761 50.527 41.6057 51.5072C41.4514 52.49 41.3697 53.3811 41.3687 54.0682C41.3687 55.0474 41.3687 56.5282 41.3687 58.0043H21.8219V51.5319C21.8219 50.6123 21.4306 49.737 20.7452 49.1225C20.1471 48.5851 19.3756 48.2948 18.5847 48.2948C18.5268 48.2948 18.4708 48.3012 18.4138 48.3049L15.7188 48.09L15.5864 48.1046L15.3559 48.1175C14.8654 48.1175 14.3877 47.9402 14.0138 47.615C13.5821 47.2393 13.3266 46.6992 13.3101 46.1251L13.3093 46.0719L12.1647 35.0304L7.8748 33.8473L7.82336 33.8372C7.69293 33.8114 7.58371 33.725 7.52758 33.6037L7.48984 33.4293L7.54316 33.2253L13.0804 23.4469L13.0923 21.9192V21.8989C13.0896 21.7668 13.0887 21.6362 13.0887 21.5059C13.098 15.9687 15.2501 11.585 18.7316 8.49398C22.2168 5.4102 27.0836 3.64828 32.5097 3.64828C33.0269 3.64828 33.5487 3.6648 34.0742 3.69703L34.1614 2.28879L34.075 3.69703C40.5722 4.10578 45.3545 6.69809 48.5962 10.4652C51.8324 14.2351 53.5108 19.2423 53.5108 24.4895C53.5108 25.1791 53.4823 25.8727 53.4235 26.568Z" fill="#F0F0F0"/>
</g>
<defs>
<clipPath id="clip0_1101_826">
<rect width="60" height="60" fill="white" transform="translate(0.5 0.826172)"/>
</clipPath>
</defs>
</svg>
