<svg width="61" height="61" viewBox="0 0 61 61" fill="none" xmlns="http://www.w3.org/2000/svg">
<g clip-path="url(#clip0_1101_854)">
<path d="M57.934 16.9284V16.9001H52.558L47.9786 16.8763C51.9918 14.4186 53.7827 9.65695 52.0009 5.74301C50.6352 2.74289 47.4318 0.826172 44.0362 0.826172C42.5961 0.826172 41.1218 1.17094 39.738 1.9234C36.6878 3.58277 34.3332 5.91105 32.5302 8.27766C32.5012 8.31562 32.4716 8.35266 32.4428 8.39121C32.1657 8.75883 31.9035 9.12457 31.6532 9.49078C31.5511 9.63867 31.4481 9.78469 31.3478 9.93527C31.2435 10.0942 31.1473 10.2498 31.0478 10.4077C30.8617 10.6975 30.6722 10.9816 30.4921 11.2825C28.5777 8.01996 25.6146 4.29199 21.2616 1.92352C19.8776 1.17094 18.4032 0.826172 16.9633 0.826172C13.5677 0.826172 10.364 2.74289 8.9984 5.74301C7.51246 9.00727 8.51664 12.8571 11.217 15.4727C11.7515 15.9991 12.3497 16.4816 13.0156 16.9001H3.13387H3.09332H3.06543V30.1386C3.06543 30.3959 3.27367 30.6042 3.53078 30.6042H9.75402V54.2821C9.75402 57.8965 12.6839 60.8262 16.298 60.8262H25.8122H35.1872H44.7013C48.3154 60.8262 51.2453 57.8965 51.2453 54.282V30.6239V30.6042H57.4688C57.7257 30.6042 57.9341 30.3959 57.9341 30.1386V16.955V16.9284H57.934ZM14.1179 8.07352C14.5458 7.1332 15.7427 6.45117 16.9635 6.45117C17.5274 6.45117 18.0688 6.59039 18.5732 6.86449C21.2481 8.3202 23.2655 10.5343 24.737 12.6991C24.962 13.037 25.1829 13.3845 25.3976 13.7447C24.873 13.7795 24.3295 13.7996 23.7714 13.7996C21.018 13.7996 18.5721 13.3222 16.5017 12.3797C15.4543 11.9027 14.6159 11.0873 14.2016 10.1426C14.0137 9.71414 13.7528 8.87555 14.1179 8.07352ZM25.8121 57.0762H16.2979C14.7576 57.0762 13.5039 55.8229 13.5039 54.282V31.1466H25.8121V57.0514V57.0762ZM6.81543 26.8542V20.6501H25.8122V26.8542H6.86441H6.81543ZM44.0362 6.45117C45.257 6.45117 46.4536 7.1332 46.8814 8.07352C47.2464 8.87555 46.9858 9.71414 46.7978 10.1426C46.3833 11.0873 45.5451 11.9027 44.4975 12.3797C42.4273 13.3222 39.9815 13.7996 37.2278 13.7996C36.7348 13.7996 36.258 13.7786 35.7902 13.7511C35.7243 13.7439 35.6581 13.7415 35.5921 13.7324C37.0982 11.2632 39.3205 8.5541 42.426 6.86449C42.9304 6.59039 43.4721 6.45117 44.0362 6.45117ZM35.1871 57.0762V31.1466H47.4952V54.282C47.4952 55.8227 46.2419 57.0762 44.7012 57.0762H35.1975H35.1871ZM35.1871 26.8542V20.6501H54.184V26.8542H35.2363H35.1871Z" fill="#F0F0F0"/>
</g>
<defs>
<clipPath id="clip0_1101_854">
<rect width="60" height="60" fill="white" transform="translate(0.5 0.826172)"/>
</clipPath>
</defs>
</svg>
