<svg width="32" height="32" viewBox="0 0 32 32" fill="none" xmlns="http://www.w3.org/2000/svg">
<path d="M14.5919 11.6158C14.5794 11.6201 13.3279 12.0561 12.0132 13.1094C10.5425 14.2879 9.5823 15.7289 9.14936 17.4031C10.1021 15.7049 11.6682 14.3939 13.5463 13.7741C13.7692 13.7004 14.0019 13.6356 14.2378 13.5812L14.2379 13.5811C14.5052 13.5195 14.7767 13.4716 15.0484 13.4383C15.1389 13.4271 15.2294 13.4176 15.3199 13.4097C15.5542 13.3893 15.7871 13.3789 16.012 13.3789C16.5119 13.3789 17.0165 13.4274 17.5119 13.5232C20.0183 14.0076 22.1132 15.6756 23.1616 17.9645C23.2489 17.5108 23.293 17.0487 23.293 16.5826C23.293 14.4992 22.3972 12.5114 20.8354 11.129C20.7929 11.0913 20.7499 11.0544 20.7067 11.0178C20.6802 10.9955 20.6533 10.9736 20.6266 10.9516C20.6104 10.9384 20.5945 10.9249 20.5783 10.9118C20.5399 10.8808 20.501 10.8503 20.462 10.8201C20.4579 10.8169 20.4539 10.8137 20.4498 10.8106C19.6241 10.1751 18.676 9.72782 17.6703 9.49282C17.6581 9.48994 17.6458 9.48707 17.6336 9.48425C17.5878 9.47382 17.5418 9.46369 17.4957 9.45413C17.4792 9.45069 17.4627 9.44763 17.4461 9.44432C17.378 9.43063 17.3095 9.41801 17.241 9.40632C17.2052 9.40026 17.1694 9.39419 17.1334 9.38863C17.1044 9.38413 17.0753 9.37982 17.0462 9.37569C16.9946 9.36832 16.943 9.36144 16.8912 9.35519C16.8772 9.35357 16.8633 9.3515 16.8492 9.34994C16.7829 9.34232 16.7164 9.33588 16.6498 9.33013C16.642 9.33007 16.6342 9.33057 16.6264 9.32988C16.4957 9.3185 16.3653 9.31101 16.2362 9.30651C16.17 9.30444 16.104 9.30257 16.0389 9.30232C16.0262 9.30219 16.0132 9.30188 16.0005 9.30188L15.956 9.30238C15.9557 9.30238 15.9555 9.30238 15.9549 9.30238L15.9545 9.30244C15.9527 9.30238 15.9484 9.3025 15.9481 9.3025C15.9473 9.3025 15.9473 9.3025 15.947 9.3025C15.9035 9.30294 15.8584 9.30369 15.8135 9.30488C15.8117 9.30494 15.8097 9.305 15.8079 9.30507C15.7415 9.30694 15.6753 9.30994 15.6094 9.31357C15.5985 9.31419 15.5877 9.31475 15.5769 9.31532C15.5084 9.31932 15.4404 9.32413 15.3735 9.32988C11.6487 9.65344 8.73105 12.8392 8.73105 16.5826C8.73105 16.643 8.73186 16.7033 8.73336 16.7635C9.37649 14.81 10.6265 13.4708 11.6657 12.6418C13.0581 11.5308 14.3493 11.0832 14.4036 11.0648C14.5559 11.0128 14.7213 11.0942 14.7732 11.2464C14.8252 11.3984 14.7439 11.5638 14.5919 11.6158Z" fill="#F0F0F0"/>
<path d="M13.5759 7.08791C13.58 7.08872 13.5839 7.0896 13.5881 7.09047C13.6539 7.10322 13.7184 7.11666 13.7809 7.13085C13.8472 7.14597 13.9131 7.16247 13.9786 7.17953C13.9926 7.18322 14.0064 7.18691 14.0204 7.19066C14.6561 7.36116 15.2526 7.62541 15.8012 7.97953C15.8144 7.9881 15.8276 7.9966 15.8408 8.00522C15.8913 8.03835 15.9414 8.07197 15.991 8.1066C15.994 8.10866 15.9971 8.1106 16.0001 8.11272C16.0076 8.10741 16.0154 8.10253 16.023 8.09728C16.0779 8.05922 16.1331 8.02178 16.1891 7.9856C16.192 7.98366 16.1949 7.98166 16.1978 7.97972C16.2564 7.94197 16.3156 7.90553 16.3752 7.86985C16.3891 7.86153 16.4031 7.85322 16.417 7.84503C16.4767 7.80985 16.5368 7.77553 16.5976 7.74235C16.6029 7.73947 16.6083 7.73672 16.6136 7.73385C16.6707 7.70291 16.7284 7.6731 16.7864 7.64397C16.7999 7.63722 16.8135 7.63035 16.827 7.62366C16.8888 7.59328 16.951 7.56372 17.0137 7.53535C17.0237 7.53091 17.0338 7.52653 17.0438 7.5221C17.1006 7.49678 17.1578 7.47241 17.2154 7.44872C17.2276 7.44372 17.2398 7.4386 17.2521 7.43366C17.316 7.40785 17.3806 7.38303 17.4456 7.35941C17.4584 7.35472 17.4712 7.35028 17.4841 7.34566C17.5435 7.32435 17.6032 7.30391 17.6635 7.28441C17.6701 7.28222 17.6767 7.27978 17.6833 7.27766C16.5377 4.64322 13.8925 2.89441 11.0028 2.89441C10.5368 2.89441 10.0747 2.93841 9.62131 3.02566C11.3923 3.83591 12.802 5.27516 13.5759 7.08791Z" fill="#F0F0F0"/>
<path d="M10.8495 10.6308C11.699 9.89719 12.7116 9.34544 13.784 9.03281C14.253 8.89606 14.7341 8.80463 15.2213 8.75725C15.3163 8.66507 15.4144 8.57544 15.5157 8.48882C15.4988 8.47769 15.482 8.4665 15.4649 8.45563C14.9122 8.10319 14.2999 7.8465 13.6515 7.69882C13.5449 7.67457 13.4364 7.65325 13.3196 7.63369C13.0062 7.58119 12.6871 7.55457 12.3711 7.55457C9.67717 7.55457 7.37748 9.39175 6.77842 12.0221C6.71048 12.3205 6.66648 12.6222 6.64655 12.9249C7.68555 11.6511 9.19811 10.8156 10.8495 10.6308Z" fill="#F0F0F0"/>
<path d="M25.2214 12.0221C24.6224 9.39145 22.3225 7.5542 19.6287 7.5542C19.2005 7.5542 18.7699 7.60282 18.3484 7.69876C18.2817 7.71401 18.2155 7.73045 18.1497 7.74782V7.74789C18.0665 7.76995 17.9842 7.79407 17.9025 7.81964C17.877 7.82764 17.8517 7.83645 17.8262 7.84476C17.7702 7.86314 17.7142 7.88214 17.6589 7.9022C17.6296 7.91282 17.6005 7.92382 17.5715 7.93489C17.5195 7.95464 17.4679 7.97526 17.4166 7.99651C17.388 8.00832 17.3594 8.0202 17.331 8.03245C17.2767 8.05614 17.2227 8.08089 17.1691 8.1062C17.1456 8.11732 17.122 8.12789 17.0987 8.13926C17.0227 8.17632 16.9475 8.21482 16.8734 8.25526C16.8643 8.2602 16.8555 8.26564 16.8465 8.27064C16.7813 8.30664 16.7167 8.34395 16.6529 8.38257C16.6285 8.39726 16.6046 8.41276 16.5804 8.42789C16.5486 8.44782 16.5171 8.46839 16.4857 8.48901C16.4904 8.49307 16.495 8.49739 16.4997 8.50145C16.5049 8.50582 16.5102 8.51014 16.5153 8.51457C16.5165 8.51557 16.5177 8.51645 16.5189 8.51751C16.5428 8.53826 16.5662 8.55976 16.5899 8.58089C16.6131 8.6017 16.6364 8.62245 16.6592 8.64357C16.6684 8.65201 16.6779 8.66032 16.687 8.66876C16.7039 8.68464 16.7205 8.70101 16.7374 8.71701C16.7514 8.73026 16.7657 8.74314 16.7794 8.75651C16.7904 8.75757 16.8014 8.75907 16.8123 8.7602C16.8664 8.76576 16.9204 8.77182 16.9742 8.77845C16.9992 8.78151 17.0242 8.78457 17.0491 8.78782C17.0962 8.79407 17.1431 8.80089 17.19 8.80795C17.2405 8.81557 17.2908 8.82376 17.3411 8.83239C17.3757 8.83832 17.4104 8.84414 17.4449 8.85045C17.4882 8.85845 17.5314 8.86714 17.5745 8.87576C17.595 8.87989 17.6154 8.88407 17.6359 8.88839C17.6842 8.89857 17.7327 8.90901 17.7809 8.92014C17.7826 8.92057 17.7844 8.92101 17.786 8.92139C18.0738 8.98782 18.3578 9.0697 18.636 9.16814C19.3633 9.4257 20.041 9.78514 20.6593 10.2395C20.6617 10.2413 20.664 10.243 20.6664 10.2448C20.7077 10.2751 20.7486 10.3059 20.7893 10.3372C20.7995 10.345 20.8097 10.3529 20.82 10.3608C20.8535 10.3868 20.8869 10.4131 20.9201 10.4397C20.9369 10.4531 20.9535 10.4665 20.9702 10.4801C20.9977 10.5024 21.0252 10.5251 21.0524 10.548C21.0734 10.5656 21.0944 10.5832 21.1153 10.6011C21.127 10.6111 21.1389 10.6208 21.1505 10.6308C22.8019 10.8156 24.3144 11.6511 25.3534 12.925C25.3334 12.6222 25.2894 12.3205 25.2214 12.0221Z" fill="#F0F0F0"/>
<path d="M23.8634 28.5232H17.6906L17.5845 25.5514C17.5357 25.5882 17.4757 25.6108 17.4099 25.6108H15.6625C15.5017 25.6108 15.3713 25.4804 15.3713 25.3196C15.3713 25.1587 15.5017 25.0284 15.6625 25.0284H17.4099C17.4681 25.0284 17.522 25.0458 17.5675 25.0752L17.2954 17.4562H15.6625C15.5017 17.4562 15.3713 17.3259 15.3713 17.165C15.3713 17.0042 15.5017 16.8738 15.6625 16.8738H17.2745L17.1739 14.0552C17.1647 14.0538 17.1555 14.0524 17.1463 14.0509C17.0599 14.0374 16.9734 14.0249 16.8867 14.0144C16.8856 14.0143 16.8846 14.0141 16.8835 14.014C16.7965 14.0035 16.7094 13.9951 16.6223 13.9877C16.6061 13.9864 16.5899 13.9849 16.5737 13.9837C16.4897 13.9772 16.4057 13.9721 16.3217 13.9685C16.3057 13.9677 16.2896 13.9672 16.2735 13.9667C16.1863 13.9636 16.099 13.9614 16.012 13.9614C15.8039 13.9614 15.588 13.9711 15.3704 13.9901C15.2935 13.9967 15.2165 14.0051 15.1395 14.0144C15.1153 14.0173 15.0912 14.0207 15.067 14.0238C15.0136 14.0308 14.9602 14.0382 14.9068 14.0464C14.8792 14.0506 14.8515 14.0551 14.824 14.0596C14.7722 14.0681 14.7206 14.0772 14.669 14.0869C14.6429 14.0918 14.6168 14.0965 14.5907 14.1017C14.5788 14.1041 14.5669 14.1069 14.555 14.1093L13.4169 20.3686H15.0801C15.2409 20.3686 15.3713 20.499 15.3713 20.6599C15.3713 20.8207 15.2409 20.9511 15.0801 20.9511H13.3327C13.3254 20.9511 13.3185 20.9495 13.3114 20.9489L12.3578 26.1933H13.9151C14.0759 26.1933 14.2064 26.3237 14.2064 26.4846C14.2064 26.6454 14.0759 26.7758 13.9151 26.7758H12.2519L11.9342 28.5232H6.97161C6.81079 28.5232 6.68042 28.6536 6.68042 28.8144C6.68042 28.9753 6.81079 29.1057 6.97161 29.1057H23.8634C24.0242 29.1057 24.1546 28.9753 24.1546 28.8144C24.1546 28.6536 24.0242 28.5232 23.8634 28.5232Z" fill="#F0F0F0"/>
</svg>
