<svg width="32" height="33" viewBox="0 0 32 33" fill="none" xmlns="http://www.w3.org/2000/svg">
<g clip-path="url(#clip0_154_156)">
<path d="M15.9412 10.0348C18.0048 10.0348 19.6778 8.36183 19.6778 6.29815C19.6778 4.23447 18.0048 2.56152 15.9412 2.56152C13.8775 2.56152 12.2045 4.23447 12.2045 6.29815C12.2045 8.36183 13.8775 10.0348 15.9412 10.0348Z" fill="#F0F0F0"/>
<path d="M29.0214 16.5784L25.5389 15.8519C24.3524 15.6034 23.181 16.1472 22.5617 17.114C21.9602 16.805 21.3134 16.5386 20.6254 16.3175V14.2466C20.6268 12.6797 19.3441 11.3984 17.7828 11.3984H14.2219C12.6523 11.3984 11.3752 12.6797 11.3752 14.2466V16.3284C10.6941 16.5454 10.0541 16.8118 9.4485 17.1222C8.82918 16.1513 7.65639 15.6034 6.4685 15.8519L2.98315 16.5784C1.45333 16.8983 0.460447 18.4158 0.780417 19.9511L1.65521 24.1299C1.97244 25.6611 3.49124 26.654 5.02246 26.334L6.12517 26.1033C6.67719 26.919 7.44076 27.6674 8.41849 28.3074C10.455 29.6422 13.1453 30.3782 16.0002 30.3782C20.3686 30.3782 24.1313 28.6218 25.8643 26.0991L26.9849 26.334C28.5148 26.6526 30.0336 25.6611 30.3508 24.1299L31.2269 19.9511C31.5455 18.4158 30.5526 16.8983 29.0214 16.5784ZM15.9988 28.9514C13.4198 28.9514 11.0029 28.3019 9.19983 27.114C8.58185 26.7102 8.06962 26.2612 7.65906 25.7806L8.50361 25.6034C10.0362 25.2848 11.0291 23.7674 10.7091 22.2348L9.92495 18.4776C10.3822 18.2318 10.8629 18.0161 11.3737 17.8321V18.5174C11.3737 20.0815 12.6536 21.3628 14.2205 21.3628H17.7813C19.3441 21.3628 20.624 20.0802 20.624 18.5174V17.7964C21.1444 17.9818 21.6333 18.1947 22.0865 18.4364L21.2914 22.2362C20.9741 23.7688 21.9656 25.2862 23.4982 25.6048L24.3509 25.7833C22.7608 27.6661 19.6146 28.9514 15.9988 28.9514Z" fill="#F0F0F0"/>
<path d="M28.2634 14.9469C30.3271 14.9469 32 13.2739 32 11.2103C32 9.14658 30.3271 7.47363 28.2634 7.47363C26.1997 7.47363 24.5268 9.14658 24.5268 11.2103C24.5268 13.2739 26.1997 14.9469 28.2634 14.9469Z" fill="#F0F0F0"/>
<path d="M4.5033 14.8689C6.52472 14.4459 7.81561 12.4643 7.39811 10.4442C6.9724 8.42556 4.9949 7.1292 2.97208 7.55217C0.953395 7.97375 -0.342971 9.95398 0.0800049 11.9741C0.501644 13.9955 2.48188 15.2905 4.5033 14.8689Z" fill="#F0F0F0"/>
</g>
<defs>
<clipPath id="clip0_154_156">
<rect width="32" height="32" fill="white" transform="translate(0 0.469971)"/>
</clipPath>
</defs>
</svg>
