<svg width="33" height="32" viewBox="0 0 33 32" fill="none" xmlns="http://www.w3.org/2000/svg">
<path fill-rule="evenodd" clip-rule="evenodd" d="M8.70543 9.73488C10.5384 7.45739 13.349 6 16.5 6C16.9867 6 17.4651 6.03476 17.9331 6.10192L18.7835 7.80256L15.5288 11.0572L12.0288 11.5572L10.3135 13.2725L8.70543 9.73488ZM7.4348 11.7727C6.83501 13.0567 6.5 14.4892 6.5 16C6.5 20.926 10.0618 25.0201 14.7504 25.8475L15.2985 24.9593L12.2529 20.7293L14.3321 18.0341L13.3436 17.5399L9.75369 18.1381L9.05155 15.3296L7.4348 11.7727ZM11.1075 15.3069L11.2462 15.8619L13.6563 15.4601L15.6635 16.4637L19.2765 15.9619L25.7725 19.7513C26.2417 18.5929 26.5 17.3267 26.5 16C26.5 11.9164 24.0523 8.40448 20.544 6.85141L21.2169 8.19747L16.4716 12.9428L12.9716 13.4428L11.1075 15.3069ZM24.8385 21.5219C23.1365 24.0869 20.2825 25.8213 17.0145 25.9869L17.7015 24.874L14.7471 20.7707L16.6137 18.3509L18.8664 18.0381L24.8385 21.5219ZM16.5 4C9.87259 4 4.5 9.37259 4.5 16C4.5 22.6275 9.87259 28 16.5 28C23.1275 28 28.5 22.6275 28.5 16C28.5 9.37259 23.1275 4 16.5 4Z" fill="#F0F0F0"/>
</svg>
