<svg width="32" height="33" viewBox="0 0 32 33" fill="none" xmlns="http://www.w3.org/2000/svg">
<g clip-path="url(#clip0_154_208)">
<path d="M16.0001 7.86022C18.0406 7.86022 19.6954 6.20585 19.6954 4.16535C19.6954 2.12485 18.0406 0.469971 16.0001 0.469971C13.9595 0.469971 12.3052 2.12478 12.3052 4.16535C12.3052 6.20591 13.9596 7.86022 16.0001 7.86022Z" fill="#F0F0F0"/>
<path d="M16.0001 14.7328C18.5384 14.7328 21.1379 13.8539 20.7322 11.4204C20.5671 10.4322 19.7499 9.04688 19.1291 8.42663C19.0487 8.34675 18.6849 8.32588 18.586 8.38713C17.8327 8.85175 16.9484 9.12263 16 9.12263C15.0521 9.12263 14.1677 8.85175 13.4146 8.38713C13.3156 8.32588 12.9517 8.34675 12.8714 8.42663C12.2511 9.04688 11.433 10.4322 11.2682 11.4204C10.8627 13.8539 13.4622 14.7328 16.0001 14.7328Z" fill="#F0F0F0"/>
<path d="M5.98028 25.5978C8.02078 25.5978 9.67565 23.9434 9.67565 21.9029C9.67565 19.8619 8.02084 18.2075 5.98028 18.2075C3.93971 18.2075 2.28534 19.8619 2.28534 21.9029C2.2854 23.9434 3.93978 25.5978 5.98028 25.5978Z" fill="#F0F0F0"/>
<path d="M9.10936 26.1645C9.02905 26.0837 8.66517 26.0638 8.56624 26.1246C7.81255 26.5892 6.92867 26.8597 5.9803 26.8597C5.03199 26.8597 4.14805 26.5893 3.3948 26.1246C3.29586 26.0639 2.93149 26.0837 2.85124 26.1645C2.23092 26.7844 1.4133 28.1697 1.24861 29.1579C0.842925 31.5914 3.44249 32.4699 5.9803 32.4699C8.51861 32.4699 11.1182 31.5914 10.7124 29.1579C10.5474 28.1697 9.72967 26.7844 9.10936 26.1645Z" fill="#F0F0F0"/>
<path d="M26.0197 25.5978C28.0602 25.5978 29.7145 23.9434 29.7145 21.9029C29.7145 19.8619 28.0602 18.2075 26.0197 18.2075C23.9792 18.2075 22.3243 19.8619 22.3243 21.9029C22.3243 23.9434 23.9792 25.5978 26.0197 25.5978Z" fill="#F0F0F0"/>
<path d="M30.7514 29.1579C30.5866 28.1697 29.769 26.7844 29.1487 26.1645C29.0684 26.0837 28.704 26.0638 28.6051 26.1246C27.8519 26.5892 26.968 26.8597 26.0196 26.8597C25.0713 26.8597 24.1874 26.5893 23.4337 26.1246C23.3347 26.0639 22.9709 26.0837 22.8905 26.1645C22.2703 26.7844 21.4529 28.1697 21.2877 29.1579C20.882 31.5914 23.4813 32.4699 26.0196 32.4699C28.5575 32.4699 31.157 31.5914 30.7514 29.1579Z" fill="#F0F0F0"/>
<path d="M21.015 23.6557L16.6095 21.1124V16.0259C16.6095 15.6892 16.3368 15.4165 16.0001 15.4165C15.6639 15.4165 15.3912 15.6892 15.3912 16.0259V21.1124L10.9857 23.6557C10.6944 23.824 10.5941 24.1971 10.7624 24.4883C10.9308 24.7797 11.3038 24.8794 11.5951 24.7116L16.0001 22.1678L20.4056 24.7111C20.6969 24.8794 21.0694 24.7796 21.2378 24.4883C21.4061 24.1971 21.3063 23.824 21.015 23.6557Z" fill="#F0F0F0"/>
</g>
<defs>
<clipPath id="clip0_154_208">
<rect width="32" height="32" fill="white" transform="translate(0 0.469971)"/>
</clipPath>
</defs>
</svg>
