<svg width="33" height="33" viewBox="0 0 33 33" fill="none" xmlns="http://www.w3.org/2000/svg">
<path d="M16.134 23.2726C16.002 22.9826 15.7287 22.771 15.3979 22.7334C15.1177 22.7014 14.8435 22.6414 14.5827 22.5548C14.4657 22.5155 14.356 22.4726 14.2544 22.4266L14.4232 21.9664C14.5424 22.0196 14.6652 22.0683 14.7909 22.1123L14.7961 22.1142L14.8015 22.1159C15.2049 22.2492 15.602 22.3168 15.9813 22.3168C16.3623 22.3168 16.6384 22.2658 16.8505 22.1563L16.8632 22.1498L16.8756 22.1426C17.1969 21.9582 17.3813 21.6412 17.3813 21.2728C17.3813 20.864 17.1608 20.5247 16.7761 20.3414C16.5827 20.2472 16.3079 20.1574 15.912 20.059C15.506 19.9563 15.1649 19.8474 14.9004 19.7358C14.7071 19.6483 14.5393 19.5087 14.3881 19.3091C14.258 19.131 14.1921 18.8631 14.1921 18.5126C14.1921 18.0896 14.3112 17.7406 14.5563 17.4454C14.7744 17.1867 15.0841 17.011 15.4999 16.9124C15.8083 16.8394 16.0488 16.6192 16.1569 16.335C16.2792 16.6231 16.5393 16.8374 16.8631 16.889C17.1335 16.932 17.3817 17.0007 17.6049 17.0936L17.4496 17.5446C17.0281 17.3754 16.6133 17.2899 16.2121 17.2899C14.8797 17.2899 14.8123 18.2091 14.8123 18.3934C14.8123 18.7928 15.028 19.1278 15.4041 19.3124L15.4147 19.3176L15.4253 19.3224C15.6153 19.4072 15.8849 19.489 16.274 19.5796C16.6763 19.6706 17.0117 19.7747 17.2753 19.8902L17.2808 19.8926L17.2863 19.8948C17.482 19.9763 17.6499 20.1123 17.7995 20.3107L17.8019 20.3138L17.8043 20.317C17.9351 20.486 18.0015 20.7475 18.0015 21.0942C18.0015 21.4943 17.8856 21.833 17.6472 22.1296C17.4404 22.387 17.1517 22.5651 16.7644 22.6742C16.4653 22.7584 16.2333 22.9871 16.134 23.2726Z" fill="#F0F0F0"/>
<path d="M16.4713 24.4701H15.8293C15.6857 24.4701 15.5693 24.3507 15.5693 24.2034V23.6681C15.5693 23.5273 15.4625 23.4115 15.326 23.3959C15.0009 23.359 14.6865 23.2901 14.3826 23.1893C14.0874 23.0898 13.8317 22.9719 13.6154 22.8353C13.516 22.7725 13.4798 22.645 13.5209 22.533L13.9613 21.3322C14.0206 21.1706 14.212 21.1087 14.3593 21.1923C14.5582 21.305 14.7721 21.4014 15.0006 21.4814C15.3413 21.5939 15.6682 21.6502 15.9813 21.6502C16.2505 21.6502 16.4429 21.6205 16.5582 21.5609C16.6736 21.4946 16.7313 21.3986 16.7313 21.2729C16.7313 21.1273 16.6544 21.0181 16.5005 20.9453C16.3522 20.8725 16.1049 20.793 15.7589 20.707C15.3138 20.5945 14.943 20.4753 14.6464 20.3495C14.3497 20.2171 14.0914 20.0053 13.8717 19.7141C13.6519 19.4162 13.5421 19.0157 13.5421 18.5126C13.5421 17.9301 13.7151 17.4303 14.0612 17.0133C14.3732 16.6434 14.8038 16.3933 15.3534 16.263C15.4772 16.2337 15.5693 16.1235 15.5693 15.9934V15.4034C15.5693 15.2561 15.6857 15.1367 15.8293 15.1367H16.4713C16.6149 15.1367 16.7313 15.2561 16.7313 15.4034V15.9597C16.7313 16.0959 16.8316 16.2094 16.9628 16.2303C17.4442 16.307 17.8673 16.4522 18.2318 16.6659C18.3353 16.7266 18.3764 16.8557 18.3366 16.9709L17.9245 18.1667C17.87 18.3253 17.688 18.3923 17.5416 18.3166C17.0773 18.0766 16.6342 17.9566 16.2121 17.9566C15.7121 17.9566 15.4621 18.1022 15.4621 18.3934C15.4621 18.5325 15.5364 18.6383 15.6846 18.7113C15.833 18.7774 16.0774 18.8502 16.4181 18.9297C16.8576 19.029 17.2285 19.1447 17.5306 19.2771C17.8328 19.4029 18.0937 19.6114 18.3136 19.9027C18.5388 20.1939 18.6514 20.5911 18.6514 21.0942C18.6514 21.6502 18.4838 22.1367 18.1486 22.5538C17.8568 22.9173 17.4526 23.1717 16.9365 23.3171C16.8178 23.3506 16.7313 23.4583 16.7313 23.5845V24.2034C16.7313 24.3507 16.6149 24.4701 16.4713 24.4701Z" fill="#F0F0F0"/>
<path fill-rule="evenodd" clip-rule="evenodd" d="M13.2898 7.13672H18.9188C20.3605 7.13672 19.5688 9.35539 18.9851 10.7087L18.3208 12.2607L18.2311 12.4701C18.8603 12.4387 19.4825 12.6174 20.0043 12.9794C21.9561 14.8111 23.5403 17.0165 24.6675 19.4714C25.1067 20.3791 25.2809 21.3978 25.1692 22.4047C25.0351 24.9713 23.0275 27.0165 20.5243 27.1367H11.6843C9.18044 27.0201 7.16986 24.977 7.0329 22.4101C6.92116 21.4031 7.09541 20.3845 7.5347 19.4767C8.66322 17.0194 10.2495 14.8121 12.2043 12.9794C12.7261 12.6174 13.3483 12.4387 13.9775 12.4701L13.8735 12.2287L13.2235 10.7087C12.6424 9.35539 11.8468 7.13672 13.2898 7.13672Z" stroke="#F0F0F0" stroke-width="2" stroke-linecap="round" stroke-linejoin="round"/>
<path d="M18.2311 13.47C18.7833 13.47 19.2311 13.0223 19.2311 12.47C19.2311 11.9177 18.7833 11.47 18.2311 11.47V13.47ZM13.9775 11.47C13.4252 11.47 12.9775 11.9177 12.9775 12.47C12.9775 13.0223 13.4252 13.47 13.9775 13.47V11.47ZM21.8035 12.0032C22.282 11.7275 22.4465 11.1161 22.1708 10.6375C21.8951 10.1589 21.2837 9.99447 20.8052 10.2702L21.8035 12.0032ZM18.3208 12.2607L18.5137 13.2419L18.5167 13.2413L18.3208 12.2607ZM13.8735 12.2287L14.0805 11.2503L14.0715 11.2484L13.8735 12.2287ZM11.388 10.2614C10.9046 9.99429 10.2962 10.1696 10.0291 10.653C9.76192 11.1363 9.93722 11.7448 10.4206 12.0119L11.388 10.2614ZM18.2311 11.47H13.9775V13.47H18.2311V11.47ZM20.8052 10.2702C19.9692 10.7517 19.0644 11.0924 18.1249 11.28L18.5167 13.2413C19.6704 13.0109 20.7801 12.5927 21.8035 12.0032L20.8052 10.2702ZM18.1279 11.2794C16.79 11.5425 15.4148 11.5326 14.0805 11.2503L13.6665 13.207C15.2643 13.5451 16.9115 13.5569 18.5137 13.2419L18.1279 11.2794ZM14.0715 11.2484C13.1345 11.0593 12.2299 10.7267 11.388 10.2614L10.4206 12.0119C11.4403 12.5755 12.5376 12.9791 13.6756 13.2089L14.0715 11.2484Z" fill="#F0F0F0"/>
</svg>
