<svg width="32" height="32" viewBox="0 0 32 32" fill="none" xmlns="http://www.w3.org/2000/svg">
<path fill-rule="evenodd" clip-rule="evenodd" d="M14.6666 20.8611C13.6894 21.9684 12.2596 22.6667 10.6666 22.6667C7.72113 22.6667 5.33331 20.2789 5.33331 17.3333C5.33331 14.3877 7.72113 12 10.6666 12C10.919 12 11.1673 12.0175 11.4103 12.0514C10.9379 11.2555 10.6666 10.3261 10.6666 9.33333C10.6666 6.38777 13.0545 4 16 4C18.9454 4 21.3333 6.38777 21.3333 9.33333C21.3333 10.3261 21.0621 11.2555 20.5897 12.0514C20.8326 12.0175 21.0809 12 21.3333 12C24.2788 12 26.6666 14.3877 26.6666 17.3333C26.6666 20.2789 24.2788 22.6667 21.3333 22.6667C19.7404 22.6667 18.3105 21.9684 17.3333 20.8611V25.3333H18.6666C19.403 25.3333 20 25.9303 20 26.6667C20 27.4031 19.403 28 18.6666 28H16H13.3333C12.5969 28 12 27.4031 12 26.6667C12 25.9303 12.5969 25.3333 13.3333 25.3333H14.6666V20.8611ZM14.1638 13.4859C13.85 14.0309 9.95686 14.7621 9.95686 14.7621C8.82865 15.0729 7.99998 16.1064 7.99998 17.3333C7.99998 18.8061 9.19389 20 10.6666 20C11.3142 20 11.9078 19.7692 12.3698 19.3853C12.4525 19.3167 12.5311 19.2429 12.605 19.1647C12.605 19.1647 15.3333 16.0008 16 16C16.6666 15.9992 19.4032 19.1737 19.4032 19.1737C19.4733 19.2472 19.5489 19.3179 19.6302 19.3853C20.0921 19.7692 20.6858 20 21.3333 20C22.8061 20 24 18.8061 24 17.3333C24 16.1064 23.1713 15.0729 22.043 14.7621C22.043 14.7621 18.1321 14 17.8361 13.4859C17.6882 13.2289 17.8956 12.5595 18.14 11.7703C18.3848 10.9802 18.6666 10.0701 18.6666 9.33333C18.6666 7.86057 17.4728 6.66667 16 6.66667C14.5272 6.66667 13.3333 7.86057 13.3333 9.33333C13.3333 10.061 13.6126 10.9503 13.8574 11.7296C14.1081 12.5275 14.3226 13.2101 14.1638 13.4859Z" fill="#F0F0F0"/>
</svg>
